<?xml version="1.0" standalone="no"?>
<!DOCTYPE svg PUBLIC "-//W3C//DTD SVG 20010904//EN"
 "http://www.w3.org/TR/2001/REC-SVG-20010904/DTD/svg10.dtd">
<svg version="1.0" xmlns="http://www.w3.org/2000/svg"
 width="1251.000000pt" height="1251.000000pt" viewBox="0 0 1251.000000 1251.000000"
 preserveAspectRatio="xMidYMid meet">
<metadata>
Created by potrace 1.14, written by Peter Selinger 2001-2017
</metadata>
<g transform="translate(0.000000,1251.000000) scale(0.100000,-0.100000)"
fill="#000000" stroke="none">
<path d="M1369 11956 c-2 -2 -23 -6 -46 -10 -327 -44 -626 -296 -733 -616 -53
-161 -50 168 -47 -5120 1 -2692 6 -4908 10 -4925 22 -86 40 -144 54 -175 83
-189 193 -323 348 -425 75 -49 200 -109 249 -119 11 -3 32 -8 46 -11 14 -3 45
-10 70 -15 47 -10 9873 -9 9900 1 8 3 31 9 50 13 107 22 251 91 345 164 187
145 302 331 353 572 4 19 7 2256 7 4970 l0 4935 -28 89 c-55 175 -135 305
-262 424 -127 119 -280 198 -449 232 -87 18 -285 18 -4977 19 -2687 1 -4888
-1 -4890 -3z"/>
</g>
</svg>
